<svg width="1200" height="2400" xmlns="http://www.w3.org/2000/svg">
  <!-- Background -->
  <rect width="1200" height="2400" fill="#f8f9fa"/>
  
  <!-- Title -->
  <text x="600" y="40" font-size="32" font-weight="bold" text-anchor="middle" fill="#1a1a1a">
    🏛️ Politician Finder 커뮤니티 구조도
  </text>
  
  <!-- Main Page Section -->
  <g id="main-page">
    <rect x="50" y="80" width="1100" height="480" fill="#ffffff" stroke="#2563eb" stroke-width="3" rx="10"/>
    <text x="600" y="115" font-size="24" font-weight="bold" text-anchor="middle" fill="#2563eb">
      📱 메인 페이지
    </text>
    
    <!-- Header -->
    <rect x="80" y="140" width="1040" height="50" fill="#dbeafe" stroke="#2563eb" stroke-width="2" rx="5"/>
    <text x="600" y="172" font-size="16" text-anchor="middle" fill="#1e40af">
      🏛️ POLITICIAN FINDER | [지역 선택▼] [검색🔍] [회원가입] [로그인]
    </text>
    
    <!-- Ranking Section -->
    <rect x="80" y="210" width="1040" height="140" fill="#fef3c7" stroke="#f59e0b" stroke-width="2" rx="5"/>
    <text x="600" y="235" font-size="18" font-weight="bold" text-anchor="middle" fill="#92400e">
      📊 정치인 평가 랭킹
    </text>
    <text x="600" y="260" font-size="14" text-anchor="middle" fill="#78350f">
      [전체] [지역별] [당별] [직책별]
    </text>
    <text x="100" y="290" font-size="14" fill="#78350f">
      순위 | 이름 | 당 | 지역구 | Claude AI | 회원평가
    </text>
    <text x="100" y="315" font-size="13" fill="#78350f">
      1위. 홍길동 | 92.5점 | 87.3점 [상세보기 →]
    </text>
    <text x="100" y="335" font-size="13" fill="#78350f">
      2위. 이순신 | 88.3점 | 91.2점 [상세보기 →]
    </text>
    
    <!-- Politician Posts Section -->
    <rect x="80" y="370" width="1040" height="90" fill="#dcfce7" stroke="#16a34a" stroke-width="2" rx="5"/>
    <text x="600" y="395" font-size="18" font-weight="bold" text-anchor="middle" fill="#14532d">
      🏛️ 정치인이 직접 쓴 글 (별도 섹션)
    </text>
    <text x="100" y="420" font-size="13" fill="#14532d">
      🏛️ 홍길동 본인 ⬆️235 💬18 | 강남구 교통 문제 해결 방안...
    </text>
    <text x="100" y="445" font-size="13" fill="#14532d">
      🏛️ 이순신 본인 ⬆️189 💬24 | 주민과의 대화 일정 안내...
    </text>
    
    <!-- Community Board -->
    <rect x="80" y="480" width="1040" height="60" fill="#e0e7ff" stroke="#6366f1" stroke-width="2" rx="5"/>
    <text x="600" y="505" font-size="18" font-weight="bold" text-anchor="middle" fill="#312e81">
      💬 일반 커뮤니티 게시판
    </text>
    <text x="600" y="525" font-size="14" text-anchor="middle" fill="#3730a3">
      [전체] [정치인글] [자유] [정책] [지역]
    </text>
  </g>
  
  <!-- Arrow Down -->
  <path d="M 600 570 L 600 610 M 590 600 L 600 610 L 610 600" stroke="#1a1a1a" stroke-width="3" fill="none"/>
  
  <!-- Politician Detail Page -->
  <g id="detail-page">
    <rect x="50" y="630" width="1100" height="520" fill="#ffffff" stroke="#7c3aed" stroke-width="3" rx="10"/>
    <text x="600" y="665" font-size="24" font-weight="bold" text-anchor="middle" fill="#7c3aed">
      📊 정치인 상세 페이지
    </text>
    
    <!-- Profile -->
    <rect x="80" y="690" width="1040" height="70" fill="#f3e8ff" stroke="#7c3aed" stroke-width="2" rx="5"/>
    <text x="600" y="715" font-size="16" font-weight="bold" text-anchor="middle" fill="#5b21b6">
      [프로필 사진] 홍길동 🏛️
    </text>
    <text x="600" y="735" font-size="13" text-anchor="middle" fill="#5b21b6">
      국민의힘 | 서울 강남구 | 제21대 국회의원
    </text>
    <text x="600" y="752" font-size="12" text-anchor="middle" fill="#6b21a8">
      (자동 수집 정보)
    </text>
    
    <!-- Evaluation Section -->
    <rect x="80" y="780" width="1040" height="160" fill="#fef2f2" stroke="#dc2626" stroke-width="2" rx="5"/>
    <text x="600" y="805" font-size="18" font-weight="bold" text-anchor="middle" fill="#7f1d1d">
      📊 AI 평가 및 회원 평가
    </text>
    
    <text x="100" y="835" font-size="15" font-weight="bold" fill="#7f1d1d">
      🤖 Claude AI 평가: ★★★★★ 92.5점
    </text>
    <text x="100" y="858" font-size="14" fill="#991b1b">
      [상세 내역 보기 →] 게시판으로 연결
    </text>
    
    <text x="100" y="885" font-size="15" font-weight="bold" fill="#7f1d1d">
      👥 회원 평가: ★★★★☆ 87.3점 (2,453명 참여)
    </text>
    <text x="100" y="908" font-size="14" fill="#991b1b">
      [평가하기]
    </text>
    
    <text x="100" y="930" font-size="14" font-weight="bold" fill="#dc2626">
      💰 AI 평가 리포트 구매하기
    </text>
    
    <!-- Posts by Politician -->
    <rect x="80" y="960" width="500" height="80" fill="#dcfce7" stroke="#16a34a" stroke-width="2" rx="5"/>
    <text x="330" y="985" font-size="16" font-weight="bold" text-anchor="middle" fill="#14532d">
      🏛️ 이 정치인이 직접 쓴 글
    </text>
    <text x="100" y="1010" font-size="12" fill="#14532d">
      [정책제안] 교통 문제 해결... ⬆️235
    </text>
    <text x="100" y="1030" font-size="12" fill="#14532d">
      [의정활동] 이번 주 보고... ⬆️189
    </text>
    
    <!-- Community Posts -->
    <rect x="620" y="960" width="500" height="80" fill="#e0e7ff" stroke="#6366f1" stroke-width="2" rx="5"/>
    <text x="870" y="985" font-size="16" font-weight="bold" text-anchor="middle" fill="#312e81">
      💬 이 정치인에 대한 커뮤니티 글
    </text>
    <text x="640" y="1010" font-size="12" fill="#312e81">
      최근 활동 어떻게... ⬆️523
    </text>
    <text x="640" y="1030" font-size="12" fill="#312e81">
      교통 정책 평가... ⬆️412
    </text>
  </g>
  
  <!-- Arrows to two branches -->
  <path d="M 300 1160 L 300 1200" stroke="#1a1a1a" stroke-width="3" fill="none"/>
  <path d="M 290 1190 L 300 1200 L 310 1190" stroke="#1a1a1a" stroke-width="3" fill="none"/>
  
  <path d="M 900 1160 L 900 1200" stroke="#1a1a1a" stroke-width="3" fill="none"/>
  <path d="M 890 1190 L 900 1200 L 910 1190" stroke="#1a1a1a" stroke-width="3" fill="none"/>
  
  <!-- Claude AI Evaluation Board -->
  <g id="evaluation-board">
    <rect x="50" y="1220" width="520" height="420" fill="#ffffff" stroke="#10b981" stroke-width="3" rx="10"/>
    <text x="310" y="1255" font-size="20" font-weight="bold" text-anchor="middle" fill="#10b981">
      📝 Claude AI 평가 내역 게시판
    </text>
    
    <rect x="80" y="1275" width="460" height="340" fill="#f0fdf4" stroke="#10b981" stroke-width="2" rx="5"/>
    
    <text x="310" y="1305" font-size="16" font-weight="bold" text-anchor="middle" fill="#14532d">
      🤖 Claude AI 종합: 92.5점
    </text>
    
    <text x="100" y="1335" font-size="13" fill="#14532d">
      📊 세부 평가 항목 (요약)
    </text>
    <text x="100" y="1355" font-size="12" fill="#166534">
      • 의정활동: 9.5/10점
    </text>
    <text x="100" y="1375" font-size="12" fill="#166534">
      • 공약이행: 27.3/30점
    </text>
    <text x="100" y="1395" font-size="12" fill="#166534">
      • 투명성: 8.5/10점
    </text>
    <text x="100" y="1415" font-size="12" fill="#166534">
      • 지역기여: 7.5/10점
    </text>
    
    <text x="100" y="1445" font-size="13" font-weight="bold" fill="#14532d">
      💬 AI 평가 총평 (요약)
    </text>
    <text x="100" y="1465" font-size="11" fill="#166534">
      높은 출석률과 활발한 법안 발의...
    </text>
    
    <line x1="100" y1="1485" x2="500" y2="1485" stroke="#10b981" stroke-width="1"/>
    
    <text x="100" y="1510" font-size="12" font-weight="bold" fill="#dc2626">
      💰 더 자세한 내용을 보고 싶으신가요?
    </text>
    <text x="100" y="1530" font-size="11" fill="#991b1b">
      Claude AI 상세 리포트 (50만원)
    </text>
    <text x="100" y="1545" font-size="10" fill="#991b1b">
      • 100개 항목 상세 분석
    </text>
    <text x="100" y="1560" font-size="10" fill="#991b1b">
      [구매하기 →]
    </text>
    
    <line x1="100" y1="1575" x2="500" y2="1575" stroke="#10b981" stroke-width="1"/>
    
    <text x="100" y="1595" font-size="12" font-weight="bold" fill="#2563eb">
      🤖 다른 AI 평가 내역도 보고 싶으신가요?
    </text>
    <text x="100" y="1615" font-size="11" fill="#1e40af">
      GPT, Gemini, Grok, Perplexity
    </text>
  </g>
  
  <!-- Purchase Page -->
  <g id="purchase-page">
    <rect x="630" y="1220" width="520" height="420" fill="#ffffff" stroke="#f59e0b" stroke-width="3" rx="10"/>
    <text x="890" y="1255" font-size="20" font-weight="bold" text-anchor="middle" fill="#f59e0b">
      💰 AI 평가 리포트 구매
    </text>
    
    <rect x="660" y="1275" width="460" height="340" fill="#fef3c7" stroke="#f59e0b" stroke-width="2" rx="5"/>
    
    <text x="890" y="1305" font-size="14" font-weight="bold" text-anchor="middle" fill="#78350f">
      대상: 홍길동 (서울 강남구)
    </text>
    
    <text x="680" y="1340" font-size="13" font-weight="bold" fill="#78350f">
      AI 선택:
    </text>
    
    <text x="680" y="1365" font-size="12" fill="#92400e">
      ☑ Claude (무료 제공됨)
    </text>
    <text x="680" y="1385" font-size="12" fill="#92400e">
      ☐ GPT           50만원
    </text>
    <text x="680" y="1405" font-size="12" fill="#92400e">
      ☐ Gemini        50만원
    </text>
    <text x="680" y="1425" font-size="12" fill="#92400e">
      ☐ Grok          50만원
    </text>
    <text x="680" y="1445" font-size="12" fill="#92400e">
      ☐ Perplexity    50만원
    </text>
    
    <text x="680" y="1475" font-size="13" font-weight="bold" fill="#78350f">
      [전체 선택] → 5개 AI, 250만원
    </text>
    
    <line x1="680" y1="1490" x2="1100" y2="1490" stroke="#f59e0b" stroke-width="1"/>
    
    <text x="680" y="1515" font-size="12" font-weight="bold" fill="#dc2626">
      🎁 할인 혜택
    </text>
    <text x="680" y="1535" font-size="11" fill="#991b1b">
      • 2회차 구매: 10% 할인
    </text>
    <text x="680" y="1550" font-size="11" fill="#991b1b">
      • 3회차 구매: 20% 할인
    </text>
    <text x="680" y="1565" font-size="11" fill="#991b1b">
      • 4회차 이상: 30% 할인
    </text>
    
    <rect x="780" y="1580" width="200" height="35" fill="#f59e0b" stroke="#78350f" stroke-width="2" rx="5"/>
    <text x="880" y="1603" font-size="14" font-weight="bold" text-anchor="middle" fill="#ffffff">
      [결제하기]
    </text>
  </g>
  
  <!-- User Permission Matrix -->
  <g id="permission">
    <rect x="50" y="1680" width="1100" height="280" fill="#ffffff" stroke="#6366f1" stroke-width="3" rx="10"/>
    <text x="600" y="1715" font-size="24" font-weight="bold" text-anchor="middle" fill="#6366f1">
      👥 사용자 권한 매트릭스
    </text>
    
    <rect x="80" y="1740" width="250" height="40" fill="#dbeafe" stroke="#2563eb" stroke-width="2"/>
    <text x="205" y="1765" font-size="14" font-weight="bold" text-anchor="middle" fill="#1e40af">기능</text>
    
    <rect x="330" y="1740" width="250" height="40" fill="#fef3c7" stroke="#f59e0b" stroke-width="2"/>
    <text x="455" y="1765" font-size="14" font-weight="bold" text-anchor="middle" fill="#92400e">비회원</text>
    
    <rect x="580" y="1740" width="250" height="40" fill="#dcfce7" stroke="#16a34a" stroke-width="2"/>
    <text x="705" y="1765" font-size="14" font-weight="bold" text-anchor="middle" fill="#14532d">일반회원</text>
    
    <rect x="830" y="1740" width="290" height="40" fill="#f3e8ff" stroke="#7c3aed" stroke-width="2"/>
    <text x="975" y="1765" font-size="14" font-weight="bold" text-anchor="middle" fill="#5b21b6">등록정치인(비회원)</text>
    
    <!-- Row 1: View -->
    <rect x="80" y="1780" width="250" height="35" fill="#ffffff" stroke="#cbd5e1" stroke-width="1"/>
    <text x="205" y="1803" font-size="12" text-anchor="middle">조회</text>
    <rect x="330" y="1780" width="250" height="35" fill="#ffffff" stroke="#cbd5e1" stroke-width="1"/>
    <text x="455" y="1803" font-size="12" text-anchor="middle">✅</text>
    <rect x="580" y="1780" width="250" height="35" fill="#ffffff" stroke="#cbd5e1" stroke-width="1"/>
    <text x="705" y="1803" font-size="12" text-anchor="middle">✅</text>
    <rect x="830" y="1780" width="290" height="35" fill="#ffffff" stroke="#cbd5e1" stroke-width="1"/>
    <text x="975" y="1803" font-size="12" text-anchor="middle">✅</text>
    
    <!-- Row 2: Write Post -->
    <rect x="80" y="1815" width="250" height="35" fill="#ffffff" stroke="#cbd5e1" stroke-width="1"/>
    <text x="205" y="1838" font-size="12" text-anchor="middle">글쓰기</text>
    <rect x="330" y="1815" width="250" height="35" fill="#ffffff" stroke="#cbd5e1" stroke-width="1"/>
    <text x="455" y="1838" font-size="12" text-anchor="middle">❌</text>
    <rect x="580" y="1815" width="250" height="35" fill="#ffffff" stroke="#cbd5e1" stroke-width="1"/>
    <text x="705" y="1838" font-size="12" text-anchor="middle">✅</text>
    <rect x="830" y="1815" width="290" height="35" fill="#ffffff" stroke="#cbd5e1" stroke-width="1"/>
    <text x="975" y="1838" font-size="11" text-anchor="middle">✅ (정치인글만)</text>
    
    <!-- Row 3: Comment -->
    <rect x="80" y="1850" width="250" height="35" fill="#ffffff" stroke="#cbd5e1" stroke-width="1"/>
    <text x="205" y="1873" font-size="12" text-anchor="middle">댓글</text>
    <rect x="330" y="1850" width="250" height="35" fill="#ffffff" stroke="#cbd5e1" stroke-width="1"/>
    <text x="455" y="1873" font-size="12" text-anchor="middle">❌</text>
    <rect x="580" y="1850" width="250" height="35" fill="#ffffff" stroke="#cbd5e1" stroke-width="1"/>
    <text x="705" y="1873" font-size="12" text-anchor="middle">✅</text>
    <rect x="830" y="1850" width="290" height="35" fill="#ffffff" stroke="#cbd5e1" stroke-width="1"/>
    <text x="975" y="1873" font-size="12" text-anchor="middle">✅</text>
    
    <!-- Row 4: Vote -->
    <rect x="80" y="1885" width="250" height="35" fill="#ffffff" stroke="#cbd5e1" stroke-width="1"/>
    <text x="205" y="1908" font-size="12" text-anchor="middle">투표 ⬆️⬇️</text>
    <rect x="330" y="1885" width="250" height="35" fill="#ffffff" stroke="#cbd5e1" stroke-width="1"/>
    <text x="455" y="1908" font-size="12" text-anchor="middle">❌</text>
    <rect x="580" y="1885" width="250" height="35" fill="#ffffff" stroke="#cbd5e1" stroke-width="1"/>
    <text x="705" y="1908" font-size="12" text-anchor="middle">✅</text>
    <rect x="830" y="1885" width="290" height="35" fill="#ffffff" stroke="#cbd5e1" stroke-width="1"/>
    <text x="975" y="1908" font-size="12" text-anchor="middle">❌</text>
    
    <!-- Row 5: Purchase Report -->
    <rect x="80" y="1920" width="250" height="35" fill="#ffffff" stroke="#cbd5e1" stroke-width="1"/>
    <text x="205" y="1943" font-size="12" text-anchor="middle">리포트 구매</text>
    <rect x="330" y="1920" width="250" height="35" fill="#ffffff" stroke="#cbd5e1" stroke-width="1"/>
    <text x="455" y="1943" font-size="12" text-anchor="middle">✅</text>
    <rect x="580" y="1920" width="250" height="35" fill="#ffffff" stroke="#cbd5e1" stroke-width="1"/>
    <text x="705" y="1943" font-size="12" text-anchor="middle">❌</text>
    <rect x="830" y="1920" width="290" height="35" fill="#ffffff" stroke="#cbd5e1" stroke-width="1"/>
    <text x="975" y="1943" font-size="12" text-anchor="middle">✅</text>
  </g>
  
  <!-- Key Features -->
  <g id="features">
    <rect x="50" y="2000" width="1100" height="360" fill="#ffffff" stroke="#dc2626" stroke-width="3" rx="10"/>
    <text x="600" y="2035" font-size="24" font-weight="bold" text-anchor="middle" fill="#dc2626">
      💡 핵심 차별화 포인트
    </text>
    
    <rect x="80" y="2060" width="520" height="140" fill="#fef2f2" stroke="#dc2626" stroke-width="2" rx="5"/>
    <text x="340" y="2085" font-size="16" font-weight="bold" text-anchor="middle" fill="#7f1d1d">
      ⭐ AI 5개 종합 평가
    </text>
    <text x="100" y="2110" font-size="12" fill="#991b1b">
      Claude, GPT, Gemini, Grok, Perplexity
    </text>
    <text x="100" y="2130" font-size="12" fill="#991b1b">
      → Claude 무료 공개 / 나머지 유료
    </text>
    <text x="100" y="2155" font-size="16" font-weight="bold" fill="#7f1d1d">
      ⭐ 이중 평가 시스템
    </text>
    <text x="100" y="2175" font-size="12" fill="#991b1b">
      AI 평가(객관적) + 회원 평가(시민 의견)
    </text>
    
    <rect x="630" y="2060" width="490" height="140" fill="#f0fdf4" stroke="#16a34a" stroke-width="2" rx="5"/>
    <text x="875" y="2085" font-size="16" font-weight="bold" text-anchor="middle" fill="#14532d">
      ⭐ 정치인 직접 참여
    </text>
    <text x="650" y="2110" font-size="12" fill="#166534">
      • 회원가입 없이 본인 인증만으로 참여
    </text>
    <text x="650" y="2130" font-size="12" fill="#166534">
      • [정치인 글] 카테고리 전용
    </text>
    <text x="650" y="2150" font-size="12" fill="#166534">
      • 🏛️ 뱃지로 명확한 구분
    </text>
    <text x="650" y="2170" font-size="12" fill="#166534">
      • 투표 불가 (공정성 확보)
    </text>
    
    <rect x="80" y="2220" width="1040" height="120" fill="#fef3c7" stroke="#f59e0b" stroke-width="2" rx="5"/>
    <text x="600" y="2245" font-size="16" font-weight="bold" text-anchor="middle" fill="#78350f">
      ⭐ 단계별 리포트 시스템
    </text>
    <text x="100" y="2270" font-size="12" fill="#92400e">
      • 무료: Claude 요약
    </text>
    <text x="100" y="2290" font-size="12" fill="#92400e">
      • 유료 1단계: Claude 상세 (50만원)
    </text>
    <text x="100" y="2310" font-size="12" fill="#92400e">
      • 유료 2단계: 5개 AI 전체 (250만원)
    </text>
    <text x="100" y="2330" font-size="12" font-weight="bold" fill="#dc2626">
      할인: 2회차 10%, 3회차 20%, 4회차 이상 30%
    </text>
  </g>
  
  <!-- Footer -->
  <text x="600" y="2385" font-size="12" text-anchor="middle" fill="#6b7280">
    작성자: Claude | 프롬프터: 써니
  </text>
</svg>